<svg id="visual" viewBox="0 0 1920 1080" width="1920" height="1080" xmlns="http://www.w3.org/2000/svg" xmlns:xlink="http://www.w3.org/1999/xlink" version="1.1"><path d="M0 44L64 42.2C128 40.3 256 36.7 384 38.5C512 40.3 640 47.7 768 47.7C896 47.7 1024 40.3 1152 36.7C1280 33 1408 33 1536 34.8C1664 36.7 1792 40.3 1856 42.2L1920 44L1920 0L1856 0C1792 0 1664 0 1536 0C1408 0 1280 0 1152 0C1024 0 896 0 768 0C640 0 512 0 384 0C256 0 128 0 64 0L0 0Z" fill="#ffb001"></path><path d="M0 131L64 134.5C128 138 256 145 384 145C512 145 640 138 768 129C896 120 1024 109 1152 110.7C1280 112.3 1408 126.7 1536 135.7C1664 144.7 1792 148.3 1856 150.2L1920 152L1920 42L1856 40.2C1792 38.3 1664 34.7 1536 32.8C1408 31 1280 31 1152 34.7C1024 38.3 896 45.7 768 45.7C640 45.7 512 38.3 384 36.5C256 34.7 128 38.3 64 40.2L0 42Z" fill="#f79600"></path><path d="M0 249L64 245.5C128 242 256 235 384 235C512 235 640 242 768 251C896 260 1024 271 1152 278.3C1280 285.7 1408 289.3 1536 287.5C1664 285.7 1792 278.3 1856 274.7L1920 271L1920 150L1856 148.2C1792 146.3 1664 142.7 1536 133.7C1408 124.7 1280 110.3 1152 108.7C1024 107 896 118 768 127C640 136 512 143 384 143C256 143 128 136 64 132.5L0 129Z" fill="#ed7c02"></path><path d="M0 422L64 436.5C128 451 256 480 384 505.2C512 530.3 640 551.7 768 542.7C896 533.7 1024 494.3 1152 492.7C1280 491 1408 527 1536 528.7C1664 530.3 1792 497.7 1856 481.3L1920 465L1920 269L1856 272.7C1792 276.3 1664 283.7 1536 285.5C1408 287.3 1280 283.7 1152 276.3C1024 269 896 258 768 249C640 240 512 233 384 233C256 233 128 240 64 243.5L0 247Z" fill="#e1620b"></path><path d="M0 465L64 484.8C128 504.7 256 544.3 384 569.7C512 595 640 606 768 595.2C896 584.3 1024 551.7 1152 555.2C1280 558.7 1408 598.3 1536 603.8C1664 609.3 1792 580.7 1856 566.3L1920 552L1920 463L1856 479.3C1792 495.7 1664 528.3 1536 526.7C1408 525 1280 489 1152 490.7C1024 492.3 896 531.7 768 540.7C640 549.7 512 528.3 384 503.2C256 478 128 449 64 434.5L0 420Z" fill="#d34613"></path><path d="M0 498L64 526.8C128 555.7 256 613.3 384 642.2C512 671 640 671 768 651.2C896 631.3 1024 591.7 1152 591.7C1280 591.7 1408 631.3 1536 642.2C1664 653 1792 635 1856 626L1920 617L1920 550L1856 564.3C1792 578.7 1664 607.3 1536 601.8C1408 596.3 1280 556.7 1152 553.2C1024 549.7 896 582.3 768 593.2C640 604 512 593 384 567.7C256 542.3 128 502.7 64 482.8L0 463Z" fill="#d34613"></path><path d="M0 530L64 558.8C128 587.7 256 645.3 384 674.2C512 703 640 703 768 685C896 667 1024 631 1152 636.3C1280 641.7 1408 688.3 1536 702.7C1664 717 1792 699 1856 690L1920 681L1920 615L1856 624C1792 633 1664 651 1536 640.2C1408 629.3 1280 589.7 1152 589.7C1024 589.7 896 629.3 768 649.2C640 669 512 669 384 640.2C256 611.3 128 553.7 64 524.8L0 496Z" fill="#d34613"></path><path d="M0 681L64 700.8C128 720.7 256 760.3 384 787.3C512 814.3 640 828.7 768 812.5C896 796.3 1024 749.7 1152 744.3C1280 739 1408 775 1536 789.3C1664 803.7 1792 796.3 1856 792.7L1920 789L1920 679L1856 688C1792 697 1664 715 1536 700.7C1408 686.3 1280 639.7 1152 634.3C1024 629 896 665 768 683C640 701 512 701 384 672.2C256 643.3 128 585.7 64 556.8L0 528Z" fill="#e1620b"></path><path d="M0 757L64 773.2C128 789.3 256 821.7 384 843.3C512 865 640 876 768 863.5C896 851 1024 815 1152 815C1280 815 1408 851 1536 867.2C1664 883.3 1792 879.7 1856 877.8L1920 876L1920 787L1856 790.7C1792 794.3 1664 801.7 1536 787.3C1408 773 1280 737 1152 742.3C1024 747.7 896 794.3 768 810.5C640 826.7 512 812.3 384 785.3C256 758.3 128 718.7 64 698.8L0 679Z" fill="#ed7c02"></path><path d="M0 1049L64 1049C128 1049 256 1049 384 1043.5C512 1038 640 1027 768 1021.5C896 1016 1024 1016 1152 1017.8C1280 1019.7 1408 1023.3 1536 1027C1664 1030.7 1792 1034.3 1856 1036.2L1920 1038L1920 874L1856 875.8C1792 877.7 1664 881.3 1536 865.2C1408 849 1280 813 1152 813C1024 813 896 849 768 861.5C640 874 512 863 384 841.3C256 819.7 128 787.3 64 771.2L0 755Z" fill="#f79600"></path><path d="M0 1081L64 1081C128 1081 256 1081 384 1081C512 1081 640 1081 768 1081C896 1081 1024 1081 1152 1081C1280 1081 1408 1081 1536 1081C1664 1081 1792 1081 1856 1081L1920 1081L1920 1036L1856 1034.2C1792 1032.3 1664 1028.7 1536 1025C1408 1021.3 1280 1017.7 1152 1015.8C1024 1014 896 1014 768 1019.5C640 1025 512 1036 384 1041.5C256 1047 128 1047 64 1047L0 1047Z" fill="#ffb001"></path></svg>