<svg id="visual" viewBox="0 0 900 600" width="900" height="600" xmlns="http://www.w3.org/2000/svg" xmlns:xlink="http://www.w3.org/1999/xlink" version="1.1"><rect x="0" y="0" width="900" height="600" fill="#F0E7D6"></rect><path d="M0 415L21.5 411.8C43 408.7 86 402.3 128.8 405.2C171.7 408 214.3 420 257.2 419C300 418 343 404 385.8 392.8C428.7 381.7 471.3 373.3 514.2 377.5C557 381.7 600 398.3 642.8 408.8C685.7 419.3 728.3 423.7 771.2 410.8C814 398 857 368 878.5 353L900 338L900 601L878.5 601C857 601 814 601 771.2 601C728.3 601 685.7 601 642.8 601C600 601 557 601 514.2 601C471.3 601 428.7 601 385.8 601C343 601 300 601 257.2 601C214.3 601 171.7 601 128.8 601C86 601 43 601 21.5 601L0 601Z" fill="#fa6934"></path><path d="M0 427L21.5 423.7C43 420.3 86 413.7 128.8 419.3C171.7 425 214.3 443 257.2 457.3C300 471.7 343 482.3 385.8 477.7C428.7 473 471.3 453 514.2 439.7C557 426.3 600 419.7 642.8 424.7C685.7 429.7 728.3 446.3 771.2 453.7C814 461 857 459 878.5 458L900 457L900 601L878.5 601C857 601 814 601 771.2 601C728.3 601 685.7 601 642.8 601C600 601 557 601 514.2 601C471.3 601 428.7 601 385.8 601C343 601 300 601 257.2 601C214.3 601 171.7 601 128.8 601C86 601 43 601 21.5 601L0 601Z" fill="#fd7b2a"></path><path d="M0 500L21.5 505.2C43 510.3 86 520.7 128.8 513.8C171.7 507 214.3 483 257.2 469.7C300 456.3 343 453.7 385.8 451.5C428.7 449.3 471.3 447.7 514.2 458.8C557 470 600 494 642.8 501.5C685.7 509 728.3 500 771.2 491C814 482 857 473 878.5 468.5L900 464L900 601L878.5 601C857 601 814 601 771.2 601C728.3 601 685.7 601 642.8 601C600 601 557 601 514.2 601C471.3 601 428.7 601 385.8 601C343 601 300 601 257.2 601C214.3 601 171.7 601 128.8 601C86 601 43 601 21.5 601L0 601Z" fill="#ff8c1f"></path><path d="M0 560L21.5 552.3C43 544.7 86 529.3 128.8 528.3C171.7 527.3 214.3 540.7 257.2 533.2C300 525.7 343 497.3 385.8 486C428.7 474.7 471.3 480.3 514.2 490.7C557 501 600 516 642.8 524.8C685.7 533.7 728.3 536.3 771.2 535.3C814 534.3 857 529.7 878.5 527.3L900 525L900 601L878.5 601C857 601 814 601 771.2 601C728.3 601 685.7 601 642.8 601C600 601 557 601 514.2 601C471.3 601 428.7 601 385.8 601C343 601 300 601 257.2 601C214.3 601 171.7 601 128.8 601C86 601 43 601 21.5 601L0 601Z" fill="#ff9e12"></path><path d="M0 561L21.5 565.7C43 570.3 86 579.7 128.8 574.8C171.7 570 214.3 551 257.2 542.2C300 533.3 343 534.7 385.8 531C428.7 527.3 471.3 518.7 514.2 521.3C557 524 600 538 642.8 545.8C685.7 553.7 728.3 555.3 771.2 559C814 562.7 857 568.3 878.5 571.2L900 574L900 601L878.5 601C857 601 814 601 771.2 601C728.3 601 685.7 601 642.8 601C600 601 557 601 514.2 601C471.3 601 428.7 601 385.8 601C343 601 300 601 257.2 601C214.3 601 171.7 601 128.8 601C86 601 43 601 21.5 601L0 601Z" fill="#ffb001"></path></svg>