<svg id="visual" viewBox="0 0 1920 1080" width="1920" height="1080" xmlns="http://www.w3.org/2000/svg" xmlns:xlink="http://www.w3.org/1999/xlink" version="1.1"><path d="M0 206L64 213.2C128 220.3 256 234.7 384 247.3C512 260 640 271 768 262C896 253 1024 224 1152 204.2C1280 184.3 1408 173.7 1536 182.7C1664 191.7 1792 220.3 1856 234.7L1920 249L1920 0L1856 0C1792 0 1664 0 1536 0C1408 0 1280 0 1152 0C1024 0 896 0 768 0C640 0 512 0 384 0C256 0 128 0 64 0L0 0Z" fill="#bc4b25"></path><path d="M0 249L64 259.8C128 270.7 256 292.3 384 310.3C512 328.3 640 342.7 768 331.8C896 321 1024 285 1152 259.8C1280 234.7 1408 220.3 1536 233C1664 245.7 1792 285.3 1856 305.2L1920 325L1920 247L1856 232.7C1792 218.3 1664 189.7 1536 180.7C1408 171.7 1280 182.3 1152 202.2C1024 222 896 251 768 260C640 269 512 258 384 245.3C256 232.7 128 218.3 64 211.2L0 204Z" fill="#de5b2d"></path><path d="M0 314L64 324.8C128 335.7 256 357.3 384 371.8C512 386.3 640 393.7 768 382.8C896 372 1024 343 1152 321.3C1280 299.7 1408 285.3 1536 292.5C1664 299.7 1792 328.3 1856 342.7L1920 357L1920 323L1856 303.2C1792 283.3 1664 243.7 1536 231C1408 218.3 1280 232.7 1152 257.8C1024 283 896 319 768 329.8C640 340.7 512 326.3 384 308.3C256 290.3 128 268.7 64 257.8L0 247Z" fill="#fb6f3b"></path><path d="M0 401L64 415.3C128 429.7 256 458.3 384 472.7C512 487 640 487 768 472.7C896 458.3 1024 429.7 1152 411.7C1280 393.7 1408 386.3 1536 395.3C1664 404.3 1792 429.7 1856 442.3L1920 455L1920 355L1856 340.7C1792 326.3 1664 297.7 1536 290.5C1408 283.3 1280 297.7 1152 319.3C1024 341 896 370 768 380.8C640 391.7 512 384.3 384 369.8C256 355.3 128 333.7 64 322.8L0 312Z" fill="#fe8a5d"></path><path d="M0 465L64 474C128 483 256 501 384 511.8C512 522.7 640 526.3 768 517.3C896 508.3 1024 486.7 1152 466.8C1280 447 1408 429 1536 439.8C1664 450.7 1792 490.3 1856 510.2L1920 530L1920 453L1856 440.3C1792 427.7 1664 402.3 1536 393.3C1408 384.3 1280 391.7 1152 409.7C1024 427.7 896 456.3 768 470.7C640 485 512 485 384 470.7C256 456.3 128 427.7 64 413.3L0 399Z" fill="#ff9a71"></path><path d="M0 541L64 550C128 559 256 577 384 584.2C512 591.3 640 587.7 768 578.7C896 569.7 1024 555.3 1152 537.3C1280 519.3 1408 497.7 1536 510.3C1664 523 1792 570 1856 593.5L1920 617L1920 528L1856 508.2C1792 488.3 1664 448.7 1536 437.8C1408 427 1280 445 1152 464.8C1024 484.7 896 506.3 768 515.3C640 524.3 512 520.7 384 509.8C256 499 128 481 64 472L0 463Z" fill="#ff9a71"></path><path d="M0 627L64 639.7C128 652.3 256 677.7 384 686.7C512 695.7 640 688.3 768 674C896 659.7 1024 638.3 1152 618.7C1280 599 1408 581 1536 590C1664 599 1792 635 1856 653L1920 671L1920 615L1856 591.5C1792 568 1664 521 1536 508.3C1408 495.7 1280 517.3 1152 535.3C1024 553.3 896 567.7 768 576.7C640 585.7 512 589.3 384 582.2C256 575 128 557 64 548L0 539Z" fill="#fe8a5d"></path><path d="M0 735L64 751.3C128 767.7 256 800.3 384 816.7C512 833 640 833 768 818.5C896 804 1024 775 1152 758.7C1280 742.3 1408 738.7 1536 756.7C1664 774.7 1792 814.3 1856 834.2L1920 854L1920 669L1856 651C1792 633 1664 597 1536 588C1408 579 1280 597 1152 616.7C1024 636.3 896 657.7 768 672C640 686.3 512 693.7 384 684.7C256 675.7 128 650.3 64 637.7L0 625Z" fill="#fb6f3b"></path><path d="M0 833L64 849.2C128 865.3 256 897.7 384 904.8C512 912 640 894 768 870.5C896 847 1024 818 1152 812.5C1280 807 1408 825 1536 848.5C1664 872 1792 901 1856 915.5L1920 930L1920 852L1856 832.2C1792 812.3 1664 772.7 1536 754.7C1408 736.7 1280 740.3 1152 756.7C1024 773 896 802 768 816.5C640 831 512 831 384 814.7C256 798.3 128 765.7 64 749.3L0 733Z" fill="#de5b2d"></path><path d="M0 1081L64 1081C128 1081 256 1081 384 1081C512 1081 640 1081 768 1081C896 1081 1024 1081 1152 1081C1280 1081 1408 1081 1536 1081C1664 1081 1792 1081 1856 1081L1920 1081L1920 928L1856 913.5C1792 899 1664 870 1536 846.5C1408 823 1280 805 1152 810.5C1024 816 896 845 768 868.5C640 892 512 910 384 902.8C256 895.7 128 863.3 64 847.2L0 831Z" fill="#bc4b25"></path></svg>